#!OML:ASF I:\Actors\actors\Patient Classification 2\Patient 1\Session 1\actor1.ASF
:FULLY-SPECIFIED
:DEGREES
729
root -0.664202 18.6908 5.97009 3.06934 -3.40005 -2.8901
lowerback 3.71769 1.27223 1.17663
upperback -2.82037 1.81268 0.907643
thorax -4.99425 0.875117 0.134925
lowerneck -10.4435 -4.38226 -2.75519
upperneck 16.8177 -7.05197 8.19076
head 7.27125 -2.85879 2.44348
rclavicle 4.2529e-015 -6.01324e-015
rhumerus -33.3607 5.97454 -63.1684
rradius 100.897
rwrist -46.3895
rhand -10.2949 -40.6621
rfingers 7.12502
rthumb 15.6997 -70.0452
lclavicle 4.2529e-015 -6.01324e-015
lhumerus -23.563 21.7487 61.6442
lradius 101.684
lwrist 59.9175
lhand -34.3523 -33.5861
lfingers 7.12502
lthumb -7.51963 -3.7398
rfemur 0 0 0
rtibia 0
rfoot 0 0
rtoes 0
lfemur -4.23672 -5.66356 -11.5552
ltibia 21.9398
lfoot -25.3072 16.2257
ltoes -54.5436
730
root -0.661916 18.6845 5.98791 2.85631 -3.29573 -2.89932
lowerback 3.60235 1.22876 1.41175
upperback -2.8723 1.76446 0.855578
thorax -4.97445 0.841992 -0.0444877
lowerneck -10.5962 -4.15461 -2.54414
upperneck 16.9364 -6.70217 7.76264
head 7.29315 -2.70807 2.30206
rclavicle -1.39708e-014 1.27222e-014
rhumerus -35.1375 4.75159 -64.1305
rradius 99.7184
rwrist -45.9127
rhand -11.1448 -40.9052
rfingers 7.12502
rthumb 14.881 -70.3508
lclavicle -1.39708e-014 1.27222e-014
lhumerus -25.4677 20.677 61.8902
lradius 100.349
lwrist 57.8395
lhand -33.6003 -32.1981
lfingers 7.12502
lthumb -6.79369 -2.32705
rfemur 0 0 0
rtibia 0
rfoot 0 0
rtoes 0
lfemur -3.95524 -5.67152 -11.5625
ltibia 21.9274
lfoot -25.3089 16.1079
ltoes -54.5821
731
root -0.660227 18.678 6.00531 2.64409 -3.27983 -2.87198
lowerback 3.48606 1.21284 1.56526
upperback -2.9131 1.74784 0.806728
thorax -4.945 0.82755 -0.177279
lowerneck -10.8594 -4.03258 -2.43122
upperneck 17.215 -6.50347 7.39081
head 7.40247 -2.62493 2.17819
rclavicle 5.41222e-015 -6.55989e-015
rhumerus -36.8471 3.33488 -65.1364
rradius 98.4444
rwrist -45.3082
rhand -11.0146 -42.8123
rfingers 7.12502
rthumb 15.0064 -72.2485
lclavicle 5.41222e-015 -6.55989e-015
lhumerus -27.5609 19.5518 62.1611
lradius 99.1433
lwrist 56.3771
lhand -32.7306 -30.277
lfingers 7.12502
lthumb -5.95416 -0.380644
rfemur 0 0 0
rtibia 0
rfoot 0 0
rtoes 0
lfemur -3.64841 -5.69752 -11.6254
ltibia 21.9005
lfoot -25.3848 16.049
ltoes -54.5934
732
root -0.658404 18.6724 6.01964 2.45692 -3.2725 -2.79
lowerback 3.3939 1.21357 1.61598
upperback -2.96052 1.74906 0.778705
thorax -4.93965 0.825733 -0.23308
lowerneck -11.0338 -3.94084 -2.32265
upperneck 17.3978 -6.32173 6.93872
head 7.46408 -2.56279 2.02845
rclavicle 1.48421e-014 5.06901e-015
rhumerus -38.4731 1.87937 -65.9376
rradius 97.0732
rwrist -44.5345
rhand -10.8672 -44.6094
rfingers 7.12502
rthumb 15.1484 -74.035
lclavicle 1.48421e-014 5.06901e-015
lhumerus -29.8471 18.2719 62.5561
lradius 98.1281
lwrist 55.3251
lhand -31.4564 -27.7681
lfingers 7.12502
lthumb -4.72385 2.15925
rfemur 0 0 0
rtibia 0
rfoot 0 0
rtoes 0
lfemur -3.36416 -5.7386 -11.7483
ltibia 21.8477
lfoot -25.4581 16.0153
ltoes -54.5612
733
root -0.657967 18.6662 6.03136 2.25633 -3.2917 -2.68476
lowerback 3.3286 1.22538 1.61555
upperback -2.98083 1.76183 0.739605
thorax -4.92221 0.831425 -0.272875
lowerneck -11.1546 -3.80085 -2.08097
upperneck 17.4711 -6.07741 6.42381
head 7.47258 -2.47214 1.84342
rclavicle -1.63034e-014 -1.10325e-014
rhumerus -40.0724 0.532526 -66.5866
rradius 95.675
rwrist -43.5318
rhand -11.2339 -48.4846
rfingers 7.12502
rthumb 14.7952 -77.9365
lclavicle -1.63034e-014 -1.10325e-014
lhumerus -31.9797 17.1118 63.1482
lradius 97.0164
lwrist 54.2671
lhand -30.0255 -24.8678
lfingers 7.12502
lthumb -3.34207 5.08574
rfemur 0 0 0
rtibia 0
rfoot 0 0
rtoes 0
lfemur -3.066 -5.6952 -11.8864
ltibia 21.7828
lfoot -25.4806 15.9543
ltoes -54.5642
734
root -0.65929 18.66 6.04277 2.07912 -3.2981 -2.59572
lowerback 3.21504 1.23717 1.65036
upperback -2.99009 1.77394 0.673052
thorax -4.86381 0.835457 -0.359331
lowerneck -11.2744 -3.63106 -1.81901
upperneck 17.5853 -5.8112 5.97309
head 7.49687 -2.36344 1.67835
rclavicle -8.6285e-015 -9.24349e-015
rhumerus -41.6658 -0.751632 -67.2406
rradius 94.1451
rwrist -42.6951
rhand -11.6613 -51.0579
rfingers 7.12502
rthumb 14.3834 -80.5395
lclavicle -8.6285e-015 -9.24349e-015
lhumerus -33.8793 16.1143 63.8535
lradius 95.5981
lwrist 53.0033
lhand -28.5724 -22.2209
lfingers 7.12502
lthumb -1.93875 7.75004
rfemur 0 0 0
rtibia 0
rfoot 0 0
rtoes 0
lfemur -2.81159 -5.56445 -11.9853
ltibia 21.7276
lfoot -25.4229 15.8448
ltoes -54.6502
735
root -0.659954 18.656 6.05371 1.98113 -3.21561 -2.54316
lowerback 3.0524 1.20897 1.73852
upperback -3.00962 1.73524 0.625485
thorax -4.78822 0.812944 -0.451271
lowerneck -11.4476 -3.48052 -1.71746
upperneck 17.728 -5.5764 5.69427
head 7.55293 -2.26353 1.59182
rclavicle -1.06816e-014 -1.49089e-015
rhumerus -43.1652 -1.95358 -67.9031
rradius 92.4766
rwrist -41.9977
rhand -12.038 -52.6601
rfingers 7.12502
rthumb 14.0204 -82.1672
lclavicle -1.06816e-014 -1.49089e-015
lhumerus -35.6036 15.2881 64.6623
lradius 93.9121
lwrist 51.5755
lhand -27.1052 -19.7801
lfingers 7.12502
lthumb -0.52174 10.199
rfemur 0 0 0
rtibia 0
rfoot 0 0
rtoes 0
lfemur -2.68203 -5.44058 -12.0225
ltibia 21.6927
lfoot -25.2886 15.7153
ltoes -54.7645
736
root -0.659347 18.6529 6.0632 1.92229 -3.13671 -2.53434
lowerback 2.84679 1.1873 1.88536
upperback -3.01253 1.70707 0.588511
thorax -4.66959 0.794429 -0.564696
lowerneck -11.6417 -3.36737 -1.71356
upperneck 17.8321 -5.39981 5.55863
head 7.6103 -2.18558 1.56208
rclavicle 1.63687e-015 -6.5102e-015
rhumerus -44.5481 -3.03936 -68.5355
rradius 90.7257
rwrist -41.0743
rhand -12.5002 -53.5271
rfingers 7.12502
rthumb 13.575 -83.0646
lclavicle 1.63687e-015 -6.5102e-015
lhumerus -37.1604 14.5544 65.5806
lradius 92.1255
lwrist 50.3629
lhand -25.6838 -17.2154
lfingers 7.12502
lthumb 0.851151 12.7627
rfemur 0 0 0
rtibia 0
rfoot 0 0
rtoes 0
lfemur -2.61754 -5.3365 -12.0144
ltibia 21.7024
lfoot -25.1741 15.5962
ltoes -54.8745
737
root -0.658544 18.65 6.07013 1.87514 -3.0873 -2.5811
lowerback 2.60718 1.20342 2.09979
upperback -3.01581 1.73071 0.542556
thorax -4.52886 0.799656 -0.727761
lowerneck -11.6261 -3.28766 -1.72102
upperneck 17.7699 -5.27169 5.49585
head 7.58013 -2.13223 1.55624
rclavicle -1.81671e-014 -1.98785e-015
rhumerus -45.9421 -4.14757 -69.0709
rradius 88.8247
rwrist -39.485
rhand -12.8844 -53.726
rfingers 7.12502
rthumb 13.2046 -83.2878
lclavicle -1.81671e-014 -1.98785e-015
lhumerus -38.6216 13.7718 66.5656
lradius 90.2864
lwrist 49.4291
lhand -24.3595 -14.9527
lfingers 7.12502
lthumb 2.13013 15.0164
rfemur 0 0 0
rtibia 0
rfoot 0 0
rtoes 0
lfemur -2.59182 -5.26532 -11.9532
ltibia 21.7738
lfoot -25.1368 15.4883
ltoes -54.9411
738
root -0.650261 18.65 6.06971 1.90291 -3.17651 -2.62268
lowerback 2.43265 1.2423 2.3787
upperback -3.04654 1.78895 0.492158
thorax -4.45071 0.819185 -0.935291
lowerneck -11.7035 -3.21104 -1.65043
upperneck 17.7907 -5.1416 5.29932
head 7.58818 -2.08172 1.49255
rclavicle 2.20278e-014 8.74653e-015
rhumerus -47.2906 -5.4268 -69.509
rradius 86.7424
rwrist -37.1098
rhand -12.7381 -53.8027
rfingers 7.12502
rthumb 13.3456 -83.3553
lclavicle 2.20278e-014 8.74653e-015
lhumerus -39.9512 13.0659 67.5934
lradius 88.2937
lwrist 48.6169
lhand -23.3738 -13.6131
lfingers 7.12502
lthumb 3.08207 16.3443
rfemur 0 0 0
rtibia 0
rfoot 0 0
rtoes 0
lfemur -2.642 -5.30897 -11.9618
ltibia 21.839
lfoot -25.2372 15.588
ltoes -54.8813
739
root -0.627101 18.6542 6.05837 2.04293 -3.6015 -2.61308
lowerback 2.37466 1.36815 2.78689
upperback -3.113 1.97147 0.40351
thorax -4.46561 0.893938 -1.26515
lowerneck -12.1158 -3.15019 -1.50846
upperneck 18.0898 -5.02232 4.90161
head 7.74117 -2.03956 1.34517
rclavicle -1.63034e-014 -7.15625e-015
rhumerus -48.453 -6.64702 -69.9024
rradius 84.6224
rwrist -34.7515
rhand -12.7137 -53.8813
rfingers 7.12502
rthumb 13.3692 -83.4324
lclavicle -1.63034e-014 -7.15625e-015
lhumerus -41.0604 12.4667 68.6839
lradius 86.1256
lwrist 47.8954
lhand -22.8063 -12.9541
lfingers 7.12502
lthumb 3.63015 16.9948
rfemur 0 0 0
rtibia 0
rfoot 0 0
rtoes 0
lfemur -2.77529 -5.51271 -12.1666
ltibia 21.887
lfoot -25.5932 16.1037
ltoes -54.6661
740
root -0.6284 18.6516 6.06142 1.89406 -3.50379 -2.53146
lowerback 2.33386 1.33406 2.82197
upperback -3.03996 1.92294 0.365977
thorax -4.36595 0.870181 -1.31834
lowerneck -12.4219 -3.08673 -1.4118
upperneck 18.2298 -4.89407 4.57121
head 7.82627 -1.99562 1.22973
rclavicle 2.00307e-014 4.17448e-015
rhumerus -49.4985 -7.67037 -70.2451
rradius 82.5502
rwrist -32.9371
rhand -12.9016 -53.9795
rfingers 7.12502
rthumb 13.1881 -83.5423
lclavicle 2.00307e-014 4.17448e-015
lhumerus -41.9482 11.9153 69.835
lradius 83.7659
lwrist 46.8001
lhand -22.4075 -12.4715
lfingers 7.12502
lthumb 4.01523 17.4704
rfemur 0 0 0
rtibia 0
rfoot 0 0
rtoes 0
lfemur -2.64851 -5.49946 -12.2495
ltibia 21.9222
lfoot -25.5832 16.0009
ltoes -54.726
